<svg width="24" height="24" viewBox="0 0 24 24" fill="none" xmlns="http://www.w3.org/2000/svg">
<path d="M18.677 19.6071L12.962 13.8911C11.7358 14.7629 10.2268 15.1422 8.73415 14.9538C7.24148 14.7654 5.87405 14.0231 4.90288 12.874C3.9317 11.725 3.42767 10.253 3.49066 8.74977C3.55366 7.24658 4.17909 5.82191 5.243 4.75812C6.30663 3.69387 7.73129 3.06809 9.2346 3.00482C10.7379 2.94155 12.2101 3.44542 13.3594 4.41653C14.5087 5.38765 15.2511 6.75513 15.4396 8.24792C15.6281 9.7407 15.2488 11.2498 14.377 12.4761L20.092 18.1921L18.678 19.6061L18.677 19.6071V19.6071ZM9.485 5.00012C8.56506 4.99991 7.67317 5.31679 6.95959 5.89739C6.246 6.47798 5.75436 7.2868 5.56748 8.18755C5.3806 9.08831 5.50992 10.026 5.93364 10.8425C6.35736 11.6591 7.04958 12.3046 7.89368 12.6704C8.73778 13.0361 9.68216 13.0998 10.5677 12.8505C11.4532 12.6013 12.2258 12.0545 12.7552 11.3022C13.2847 10.5499 13.5386 9.63803 13.4743 8.72035C13.4099 7.80266 13.0312 6.9352 12.402 6.26412L13.007 6.86412L12.325 6.18412L12.313 6.17212C11.9426 5.79941 11.5019 5.50391 11.0164 5.30273C10.531 5.10155 10.0105 4.9987 9.485 5.00012V5.00012Z" fill="#999999"/>
</svg>
